<svg width="960" height="720" viewBox="0 0 960 720" fill="none" xmlns="http://www.w3.org/2000/svg">
  <rect width="960" height="720" rx="36" fill="#F3FAFD"/>
  <rect x="48" y="48" width="864" height="624" rx="28" fill="white" stroke="#DCE8EE" stroke-width="2"/>
  <rect x="120" y="106" width="246" height="38" rx="19" fill="#E3F2F7"/>
  <text x="142" y="132" fill="#236A87" font-family="Segoe UI, Arial, sans-serif" font-size="24" font-weight="600">Демо-фото: электросамокат</text>
  <circle cx="318" cy="500" r="88" stroke="#1F3740" stroke-width="18"/>
  <circle cx="654" cy="500" r="88" stroke="#1F3740" stroke-width="18"/>
  <circle cx="318" cy="500" r="38" stroke="#B6C6D0" stroke-width="6"/>
  <circle cx="654" cy="500" r="38" stroke="#B6C6D0" stroke-width="6"/>
  <path d="M318 500H546L608 226" stroke="#1D8B7B" stroke-width="18" stroke-linecap="round" stroke-linejoin="round"/>
  <path d="M578 226H704" stroke="#1F3740" stroke-width="12" stroke-linecap="round"/>
  <path d="M460 500L520 500" stroke="#1F3740" stroke-width="12" stroke-linecap="round"/>
  <rect x="646" y="152" width="126" height="182" rx="22" fill="#F6FBFD" stroke="#DCE8EE" stroke-width="2"/>
  <path d="M684 196H734" stroke="#236A87" stroke-width="8" stroke-linecap="round"/>
  <path d="M684 232H734" stroke="#236A87" stroke-width="8" stroke-linecap="round"/>
  <path d="M684 268H722" stroke="#236A87" stroke-width="8" stroke-linecap="round"/>
  <circle cx="702" cy="306" r="18" stroke="#236A87" stroke-width="6"/>
  <text x="104" y="610" fill="#5F717C" font-family="Segoe UI, Arial, sans-serif" font-size="30">Подходит как заглушка для фото ремонта и диагностики</text>
</svg>
