<svg width="960" height="720" viewBox="0 0 960 720" fill="none" xmlns="http://www.w3.org/2000/svg">
  <rect width="960" height="720" rx="36" fill="#F5FBFA"/>
  <rect x="48" y="48" width="864" height="624" rx="28" fill="white" stroke="#D9E9E6" stroke-width="2"/>
  <circle cx="270" cy="468" r="104" stroke="#1F3740" stroke-width="18"/>
  <circle cx="676" cy="468" r="104" stroke="#1F3740" stroke-width="18"/>
  <circle cx="270" cy="468" r="48" stroke="#B7CAC7" stroke-width="6"/>
  <circle cx="676" cy="468" r="48" stroke="#B7CAC7" stroke-width="6"/>
  <path d="M312 466L430 314L548 466H312Z" stroke="#1D8B7B" stroke-width="16" stroke-linecap="round" stroke-linejoin="round"/>
  <path d="M430 314L566 282" stroke="#1D8B7B" stroke-width="16" stroke-linecap="round"/>
  <path d="M432 314L382 246" stroke="#1D8B7B" stroke-width="16" stroke-linecap="round"/>
  <path d="M548 466L640 466" stroke="#1D8B7B" stroke-width="16" stroke-linecap="round"/>
  <path d="M566 282L662 280" stroke="#1D8B7B" stroke-width="16" stroke-linecap="round"/>
  <path d="M606 310L566 282L548 466" stroke="#1D8B7B" stroke-width="16" stroke-linecap="round" stroke-linejoin="round"/>
  <path d="M366 246H420" stroke="#1F3740" stroke-width="12" stroke-linecap="round"/>
  <path d="M646 280H706" stroke="#1F3740" stroke-width="12" stroke-linecap="round"/>
  <rect x="104" y="100" width="220" height="38" rx="19" fill="#DDF2EE"/>
  <text x="126" y="126" fill="#155F58" font-family="Segoe UI, Arial, sans-serif" font-size="24" font-weight="600">Демо-фото: велосипед</text>
  <text x="104" y="602" fill="#5F717C" font-family="Segoe UI, Arial, sans-serif" font-size="30">Место для будущей фотографии клиента</text>
</svg>
