<svg width="960" height="720" viewBox="0 0 960 720" fill="none" xmlns="http://www.w3.org/2000/svg">
  <rect width="960" height="720" rx="36" fill="#F7FBF9"/>
  <rect x="48" y="48" width="864" height="624" rx="28" fill="white" stroke="#D9E9E6" stroke-width="2"/>
  <rect x="102" y="104" width="240" height="38" rx="19" fill="#DDF2EE"/>
  <text x="124" y="130" fill="#155F58" font-family="Segoe UI, Arial, sans-serif" font-size="24" font-weight="600">Демо-фото: рабочее место</text>
  <rect x="202" y="334" width="556" height="30" rx="15" fill="#1F3740"/>
  <rect x="236" y="364" width="22" height="158" rx="11" fill="#1F3740"/>
  <rect x="706" y="364" width="22" height="158" rx="11" fill="#1F3740"/>
  <rect x="264" y="220" width="420" height="110" rx="20" fill="#F4FAF8" stroke="#D9E9E6" stroke-width="2"/>
  <path d="M312 256H636" stroke="#A8C4BC" stroke-width="8" stroke-linecap="round"/>
  <path d="M312 290H572" stroke="#A8C4BC" stroke-width="8" stroke-linecap="round"/>
  <rect x="138" y="182" width="86" height="126" rx="18" fill="#F4FAF8" stroke="#D9E9E6" stroke-width="2"/>
  <path d="M160 216H202" stroke="#1D8B7B" stroke-width="8" stroke-linecap="round"/>
  <path d="M182 194V278" stroke="#1D8B7B" stroke-width="8" stroke-linecap="round"/>
  <rect x="740" y="172" width="86" height="146" rx="18" fill="#F4FAF8" stroke="#D9E9E6" stroke-width="2"/>
  <circle cx="782" cy="218" r="18" stroke="#236A87" stroke-width="7"/>
  <path d="M782 236V272" stroke="#236A87" stroke-width="7" stroke-linecap="round"/>
  <path d="M760 504H806" stroke="#1D8B7B" stroke-width="10" stroke-linecap="round"/>
  <path d="M782 482V526" stroke="#1D8B7B" stroke-width="10" stroke-linecap="round"/>
  <text x="104" y="602" fill="#5F717C" font-family="Segoe UI, Arial, sans-serif" font-size="30">Можно заменить на фото мастерской, инструмента или готовой работы</text>
</svg>
